<?xml version="1.0" encoding="UTF-8" standalone="no"?>
<!-- Created with Inkscape (http://www.inkscape.org/) -->

<svg
   width="800.00000mm"
   height="400.00000mm"
   viewBox="0 0 800.00000 400.00000"
   version="1.1"
   id="svg1"
   xml:space="preserve"
   sodipodi:docname="Styrpidestal-Platta-600x350.svg"
   inkscape:version="1.4 (86a8ad7, 2024-10-11)"
   xmlns:inkscape="http://www.inkscape.org/namespaces/inkscape"
   xmlns:sodipodi="http://sodipodi.sourceforge.net/DTD/sodipodi-0.dtd"
   xmlns="http://www.w3.org/2000/svg"
   xmlns:svg="http://www.w3.org/2000/svg"><sodipodi:namedview
     id="namedview1"
     pagecolor="#ffffff"
     bordercolor="#666666"
     borderopacity="1.0"
     inkscape:showpageshadow="2"
     inkscape:pageopacity="0.0"
     inkscape:pagecheckerboard="0"
     inkscape:deskcolor="#d1d1d1"
     inkscape:document-units="mm"
     inkscape:zoom="0.35355339"
     inkscape:cx="1373.2014"
     inkscape:cy="584.0702"
     inkscape:window-width="1920"
     inkscape:window-height="1001"
     inkscape:window-x="-9"
     inkscape:window-y="-9"
     inkscape:window-maximized="1"
     inkscape:current-layer="layer1"><inkscape:page
       x="0"
       y="0"
       width="800"
       height="400"
       id="page2"
       margin="0"
       bleed="0" /></sodipodi:namedview><defs
     id="defs1"><marker
       id="DistanceX"
       orient="auto"
       refX="0"
       refY="0"
       style="overflow:visible"><path
         d="M 3,-3 -3,3 M 0,-5 V 5"
         style="stroke:#000000;stroke-width:0.5"
         id="path1" /></marker><pattern
       id="Hatch"
       patternUnits="userSpaceOnUse"
       width="8"
       height="8"
       x="0"
       y="0"><path
         d="M8 4 l-4,4"
         stroke="#000000"
         stroke-width="0.25"
         linecap="square"
         id="path2" /><path
         d="M6 2 l-4,4"
         stroke="#000000"
         stroke-width="0.25"
         linecap="square"
         id="path3" /><path
         d="M4 0 l-4,4"
         stroke="#000000"
         stroke-width="0.25"
         linecap="square"
         id="path4" /></pattern><symbol
       id="*MODEL_SPACE" /><symbol
       id="*PAPER_SPACE" /></defs><g
     inkscape:label="Layer 1"
     inkscape:groupmode="layer"
     id="layer1"
     transform="translate(246.75589,-27.894144)"><path
       d="m 416.24247,263.05812 a 45.5,45.5 0 0 1 -91,0 45.5,45.5 0 0 1 91,0 z"
       style="fill:none;stroke:#000000;stroke-width:0.266885"
       id="path5"
       inkscape:label="Autopilot" /><path
       d="M 272.02282,190.31329 H 34.729794 a 5.1193071,5.2273994 0 0 0 -5.109713,4.90754 1071.1375,1093.754 0 0 0 0.107977,135.61964 5.1193071,5.2273994 0 0 0 5.109202,4.89907 h 237.07811 a 5.1193071,5.2273994 0 0 0 5.10919,-4.89907 1071.1375,1093.754 0 0 0 0.10798,-135.61964 5.1193071,5.2273994 0 0 0 -5.10972,-4.90754 z"
       style="fill:none;stroke:#000000;stroke-width:0.273741"
       id="path6"
       inkscape:label="Plotter" /><path
       id="path10"
       style="fill:none;stroke:#000000;stroke-width:0.264583"
       d="m -0.9058755,68.026435 a 20,20 0 0 0 -9.9999055,2.679423 L -136.62369,143.28903 a 20,20 0 0 0 -9.99991,17.32091 v 194.47443 0.0196 12.92272 a 20,20 0 0 0 19.99981,19.99982 h 559.99993 a 20,20 0 0 0 20.00033,-19.99982 v -12.92272 -0.0196 -194.47443 A 20,20 0 0 0 443.37605,143.28903 L 317.65814,70.705858 a 20,20 0 0 0 -9.99991,-2.679423 z" /><path
       d="m 107.73217,148.0264 a 4.5,4.5 0 0 1 -8.999994,0 4.5,4.5 0 0 1 8.999994,0 z"
       style="fill:none;stroke:#000000;stroke-width:0.28829"
       id="path8"
       inkscape:label="Screw hole left" /><path
       d="m 207.73224,148.0264 a 4.5,4.5 0 0 1 -9,0 4.5,4.5 0 0 1 9,0 z"
       style="fill:none;stroke:#000000;stroke-width:0.288127"
       id="path9"
       inkscape:label="Screw hole right" /></g></svg>
