<?xml version="1.0" encoding="UTF-8" standalone="no"?>
<!-- Created with Inkscape (http://www.inkscape.org/) -->

<svg
   width="800.00000mm"
   height="400.00000mm"
   viewBox="0 0 800.00000 400.00000"
   version="1.1"
   id="svg1"
   xml:space="preserve"
   sodipodi:docname="Styrpidestal-Platta-600x350.svg"
   inkscape:version="1.4 (86a8ad7, 2024-10-11)"
   xmlns:inkscape="http://www.inkscape.org/namespaces/inkscape"
   xmlns:sodipodi="http://sodipodi.sourceforge.net/DTD/sodipodi-0.dtd"
   xmlns="http://www.w3.org/2000/svg"
   xmlns:svg="http://www.w3.org/2000/svg"><sodipodi:namedview
     id="namedview1"
     pagecolor="#ffffff"
     bordercolor="#666666"
     borderopacity="1.0"
     inkscape:showpageshadow="2"
     inkscape:pageopacity="0.0"
     inkscape:pagecheckerboard="0"
     inkscape:deskcolor="#d1d1d1"
     inkscape:document-units="mm"
     inkscape:zoom="0.34876894"
     inkscape:cx="1425.0122"
     inkscape:cy="609.28591"
     inkscape:window-width="1920"
     inkscape:window-height="1001"
     inkscape:window-x="-9"
     inkscape:window-y="-9"
     inkscape:window-maximized="1"
     inkscape:current-layer="layer1"><inkscape:page
       x="0"
       y="0"
       width="800"
       height="400"
       id="page2"
       margin="0"
       bleed="0" /></sodipodi:namedview><defs
     id="defs1"><marker
       id="DistanceX"
       orient="auto"
       refX="0"
       refY="0"
       style="overflow:visible"><path
         d="M 3,-3 -3,3 M 0,-5 V 5"
         style="stroke:#000000;stroke-width:0.5"
         id="path1" /></marker><pattern
       id="Hatch"
       patternUnits="userSpaceOnUse"
       width="8"
       height="8"
       x="0"
       y="0"><path
         d="M8 4 l-4,4"
         stroke="#000000"
         stroke-width="0.25"
         linecap="square"
         id="path2" /><path
         d="M6 2 l-4,4"
         stroke="#000000"
         stroke-width="0.25"
         linecap="square"
         id="path3" /><path
         d="M4 0 l-4,4"
         stroke="#000000"
         stroke-width="0.25"
         linecap="square"
         id="path4" /></pattern><symbol
       id="*MODEL_SPACE" /><symbol
       id="*PAPER_SPACE" /></defs><g
     inkscape:label="Layer 1"
     inkscape:groupmode="layer"
     id="layer1"
     transform="translate(246.75589,-27.894144)"><path
       d="m 414.74257,248.05814 a 45.50000,45.50000 0 0 1 -91.00000,0 45.50000,45.50000 0 0 1 91.00000,0 z"
       style="fill:none;stroke:#000000;stroke-width:0.266885"
       id="path5"
       inkscape:label="Autopilot" /><path
       d="M 269.19688,178.30885 H 37.555924 a 4.9973706,5.0120476 0 0 0 -4.988005,4.70537 1045.6241,1048.6949 0 0 0 0.105405,130.03255 4.9973706,5.0120476 0 0 0 4.987506,4.69725 h 231.43116 a 4.9973706,5.0120476 0 0 0 4.9875,-4.69725 1045.6241,1048.6949 0 0 0 0.10541,-130.03255 4.9973706,5.0120476 0 0 0 -4.98802,-4.70537 z"
       style="fill:none;stroke:#000000;stroke-width:0.264832"
       id="path6"
       inkscape:label="Plotter" /><path
       d="m 453.3764,383.02643 a 20,20 0 0 1 -20,20 h -559.99999 a 20,20 0 0 1 -20.00001,-20 V 145.60975 a 20,20 0 0 1 10,-17.32053 L -10.905627,55.705925 a 20,20 0 0 1 10.0000005,-2.67949 H 307.65843 a 20,20 0 0 1 10,2.67949 L 443.3764,128.28922 a 20,20 0 0 1 10,17.32053 z"
       style="fill:none;stroke:#000000;stroke-width:0.264583"
       id="path7"
       inkscape:label="Instrument panel" /><path
       d="m 107.73227,133.02642 a 4.50000,4.50000 0 0 1 -9.00000,0 4.50000,4.50000 0 0 1 9.00000,0 z"
       style="fill:none;stroke:#000000;stroke-width:0.28829"
       id="path8"
       inkscape:label="Screw hole left" /><path
       d="m 207.73234,133.02642 a 4.50000,4.50000 0 0 1 -9.00000,0 4.50000,4.50000 0 0 1 9.00000,0 z"
       style="fill:none;stroke:#000000;stroke-width:0.288127"
       id="path9"
       inkscape:label="Screw hole right" /></g></svg>
